<svg xmlns="http://www.w3.org/2000/svg" xmlns:xlink="http://www.w3.org/1999/xlink" width="500" zoomAndPan="magnify" viewBox="0 0 375 374.999991" height="500" preserveAspectRatio="xMidYMid meet" version="1.0"><defs><g/><clipPath id="id1"><path d="M 252 107 L 305.683594 107 L 305.683594 156 L 252 156 Z M 252 107 " clip-rule="nonzero"/></clipPath><clipPath id="id2"><path d="M 138 16.148438 L 177 16.148438 L 177 84 L 138 84 Z M 138 16.148438 " clip-rule="nonzero"/></clipPath><clipPath id="id3"><path d="M 252 160 L 305.683594 160 L 305.683594 209 L 252 209 Z M 252 160 " clip-rule="nonzero"/></clipPath><clipPath id="id4"><path d="M 208 182 L 277 182 L 277 299.648438 L 208 299.648438 Z M 208 182 " clip-rule="nonzero"/></clipPath><clipPath id="id5"><path d="M 69.433594 140 L 123 140 L 123 188 L 69.433594 188 Z M 69.433594 140 " clip-rule="nonzero"/></clipPath></defs><g clip-path="url(#id1)"><path fill="#80cc28" d="M 305.671875 107.972656 C 305.671875 107.972656 241.355469 102.765625 254.4375 151.515625 C 284.042969 164.910156 292.085938 141.640625 297.390625 124.339844 C 300.324219 114.777344 305.671875 107.972656 305.671875 107.972656 " fill-opacity="1" fill-rule="nonzero"/></g><path fill="#80cc28" d="M 252.011719 41.515625 C 252.011719 41.515625 202.851562 83.332031 246.554688 108.550781 C 276.957031 97.078125 266.199219 74.933594 257.722656 58.945312 C 253.039062 50.105469 252.011719 41.515625 252.011719 41.515625 " fill-opacity="1" fill-rule="nonzero"/><g clip-path="url(#id2)"><path fill="#80cc28" d="M 153.339844 16.167969 C 153.339844 16.167969 202.5 57.988281 158.792969 83.203125 C 128.394531 71.730469 139.148438 49.585938 147.625 33.597656 C 152.3125 24.761719 153.339844 16.167969 153.339844 16.167969 " fill-opacity="1" fill-rule="nonzero"/></g><path fill="#80cc28" d="M 128.597656 64.007812 C 128.597656 64.007812 166.726562 96.441406 132.828125 116 C 109.25 107.101562 117.589844 89.925781 124.164062 77.527344 C 127.800781 70.671875 128.597656 64.007812 128.597656 64.007812 " fill-opacity="1" fill-rule="nonzero"/><path fill="#80cc28" d="M 241.5 107.867188 C 241.5 107.867188 195.597656 104.769531 205.394531 139.398438 C 226.625 148.664062 232.136719 132 235.753906 119.613281 C 237.753906 112.769531 241.5 107.867188 241.5 107.867188 " fill-opacity="1" fill-rule="nonzero"/><path fill="#1c6434" d="M 129.773438 94.4375 C 129.773438 92.3125 131.496094 90.589844 133.621094 90.589844 C 135.742188 90.589844 137.464844 92.3125 137.464844 94.4375 C 137.464844 96.5625 135.742188 98.28125 133.621094 98.28125 C 131.496094 98.28125 129.773438 96.5625 129.773438 94.4375 Z M 135.476562 100.972656 C 138.328125 100.164062 140.414062 97.546875 140.414062 94.4375 C 140.414062 90.683594 137.375 87.636719 133.621094 87.636719 C 129.867188 87.636719 126.824219 90.683594 126.824219 94.4375 C 126.824219 97.332031 128.636719 99.800781 131.183594 100.78125 L 131.183594 164.300781 L 173.570312 206.707031 L 173.570312 264.507812 L 177.863281 264.507812 L 177.863281 204.929688 L 135.476562 162.519531 L 135.476562 100.972656 " fill-opacity="1" fill-rule="nonzero"/><path fill="#1c6434" d="M 153.917969 62.632812 C 153.917969 60.507812 155.640625 58.785156 157.765625 58.785156 C 159.886719 58.785156 161.609375 60.507812 161.609375 62.632812 C 161.609375 64.757812 159.886719 66.480469 157.765625 66.480469 C 155.640625 66.480469 153.917969 64.757812 153.917969 62.632812 Z M 159.800781 69.121094 C 162.558594 68.253906 164.558594 65.675781 164.558594 62.632812 C 164.558594 58.875 161.515625 55.832031 157.765625 55.832031 C 154.011719 55.832031 150.96875 58.875 150.96875 62.632812 C 150.96875 65.59375 152.863281 68.105469 155.507812 69.039062 L 155.507812 127.5625 L 173.570312 145.636719 L 173.570312 185.808594 L 177.863281 185.808594 L 177.863281 143.855469 L 159.800781 125.785156 L 159.800781 69.121094 " fill-opacity="1" fill-rule="nonzero"/><path fill="#1c6434" d="M 269.898438 140.21875 C 267.777344 140.21875 266.054688 138.496094 266.054688 136.371094 C 266.054688 134.246094 267.777344 132.523438 269.898438 132.523438 C 272.023438 132.523438 273.746094 134.246094 273.746094 136.371094 C 273.746094 138.496094 272.023438 140.21875 269.898438 140.21875 Z M 269.898438 129.570312 C 266.144531 129.570312 263.101562 132.613281 263.101562 136.371094 C 263.101562 137.496094 263.382812 138.5625 263.871094 139.496094 L 227.445312 175.941406 L 227.445312 198.621094 L 208.261719 217.8125 L 208.261719 246.617188 L 212.554688 246.617188 L 212.554688 219.589844 L 231.734375 200.402344 L 231.734375 177.722656 L 266.953125 142.488281 C 267.84375 142.921875 268.84375 143.167969 269.898438 143.167969 C 273.652344 143.167969 276.695312 140.125 276.695312 136.371094 C 276.695312 132.613281 273.652344 129.570312 269.898438 129.570312 " fill-opacity="1" fill-rule="nonzero"/><g clip-path="url(#id3)"><path fill="#80cc28" d="M 305.671875 161 C 305.671875 161 241.355469 155.792969 254.4375 204.542969 C 284.042969 217.941406 292.085938 194.671875 297.390625 177.371094 C 300.324219 167.804688 305.671875 161 305.671875 161 " fill-opacity="1" fill-rule="nonzero"/></g><g clip-path="url(#id4)"><path fill="#1c6434" d="M 269.898438 193.246094 C 267.777344 193.246094 266.054688 191.523438 266.054688 189.398438 C 266.054688 187.273438 267.777344 185.554688 269.898438 185.554688 C 272.023438 185.554688 273.746094 187.273438 273.746094 189.398438 C 273.746094 191.523438 272.023438 193.246094 269.898438 193.246094 Z M 269.898438 182.601562 C 266.144531 182.601562 263.101562 185.644531 263.101562 189.398438 C 263.101562 190.527344 263.382812 191.589844 263.871094 192.527344 L 227.445312 228.972656 L 227.445312 251.652344 L 208.261719 270.839844 L 208.261719 299.644531 L 212.554688 299.644531 L 212.554688 272.621094 L 231.734375 253.429688 L 231.734375 230.75 L 266.953125 195.515625 C 267.84375 195.949219 268.84375 196.199219 269.898438 196.199219 C 273.652344 196.199219 276.695312 193.152344 276.695312 189.398438 C 276.695312 185.644531 273.652344 182.601562 269.898438 182.601562 " fill-opacity="1" fill-rule="nonzero"/></g><g clip-path="url(#id5)"><path fill="#80cc28" d="M 69.425781 140.378906 C 69.425781 140.378906 133.742188 135.171875 120.660156 183.921875 C 91.054688 197.320312 83.007812 174.050781 77.703125 156.746094 C 74.769531 147.183594 69.425781 140.378906 69.425781 140.378906 " fill-opacity="1" fill-rule="nonzero"/></g><path fill="#1c6434" d="M 101.351562 168.773438 C 101.351562 166.652344 103.070312 164.929688 105.195312 164.929688 C 107.320312 164.929688 109.039062 166.652344 109.039062 168.773438 C 109.039062 170.898438 107.320312 172.621094 105.195312 172.621094 C 103.070312 172.621094 101.351562 170.898438 101.351562 168.773438 Z M 98.398438 168.773438 C 98.398438 172.53125 101.441406 175.574219 105.195312 175.574219 C 106.253906 175.574219 107.25 175.328125 108.144531 174.894531 L 143.359375 210.125 L 143.359375 232.804688 L 162.539062 251.996094 L 162.539062 279.019531 L 166.832031 279.019531 L 166.832031 250.21875 L 147.652344 231.027344 L 147.652344 208.347656 L 111.226562 171.90625 C 111.710938 170.96875 111.992188 169.90625 111.992188 168.773438 C 111.992188 165.019531 108.949219 161.976562 105.195312 161.976562 C 101.441406 161.976562 98.398438 165.019531 98.398438 168.773438 " fill-opacity="1" fill-rule="nonzero"/><path fill="#1c6434" d="M 246.226562 86.15625 C 248.347656 86.15625 250.070312 87.878906 250.070312 90.003906 C 250.070312 92.128906 248.347656 93.851562 246.226562 93.851562 C 244.101562 93.851562 242.378906 92.128906 242.378906 90.003906 C 242.378906 87.878906 244.101562 86.15625 246.226562 86.15625 Z M 243.820312 96.355469 L 243.820312 134.640625 L 208.261719 170.214844 L 208.261719 203.671875 L 212.554688 203.671875 L 212.554688 171.996094 L 248.113281 136.417969 L 248.113281 96.53125 C 250.949219 95.710938 253.019531 93.101562 253.019531 90.003906 C 253.019531 86.246094 249.976562 83.203125 246.226562 83.203125 C 242.472656 83.203125 239.429688 86.246094 239.429688 90.003906 C 239.429688 92.910156 241.257812 95.386719 243.820312 96.355469 " fill-opacity="1" fill-rule="nonzero"/><path fill="#1c6434" d="M 219.808594 121.183594 C 221.933594 121.183594 223.65625 122.90625 223.65625 125.027344 C 223.65625 127.152344 221.933594 128.875 219.808594 128.875 C 217.6875 128.875 215.964844 127.152344 215.964844 125.027344 C 215.964844 122.90625 217.6875 121.183594 219.808594 121.183594 Z M 219.808594 131.828125 C 223.5625 131.828125 226.605469 128.785156 226.605469 125.027344 C 226.605469 121.273438 223.5625 118.230469 219.808594 118.230469 C 216.054688 118.230469 213.015625 121.273438 213.015625 125.027344 C 213.015625 126.082031 213.257812 127.074219 213.6875 127.964844 L 191.363281 150.296875 L 191.363281 285.800781 L 195.65625 285.800781 L 195.65625 152.078125 L 216.667969 131.054688 C 217.609375 131.546875 218.675781 131.828125 219.808594 131.828125 " fill-opacity="1" fill-rule="nonzero"/><g fill="#000000" fill-opacity="1"><g transform="translate(98.070218, 367.366162)"><g><path d="M 7.28125 -2.578125 C 7.28125 -2.265625 7.328125 -2.003906 7.421875 -1.796875 C 7.515625 -1.585938 7.648438 -1.421875 7.828125 -1.296875 C 8.003906 -1.171875 8.21875 -1.082031 8.46875 -1.03125 C 8.726562 -0.976562 9.015625 -0.953125 9.328125 -0.953125 C 9.398438 -0.953125 9.4375 -0.914062 9.4375 -0.84375 L 9.4375 -0.109375 C 9.4375 -0.078125 9.429688 -0.0507812 9.421875 -0.03125 C 9.421875 -0.0078125 9.390625 0 9.328125 0 L 1.328125 0 C 1.285156 0 1.253906 -0.0078125 1.234375 -0.03125 C 1.222656 -0.0625 1.21875 -0.0859375 1.21875 -0.109375 L 1.21875 -0.84375 C 1.21875 -0.863281 1.222656 -0.882812 1.234375 -0.90625 C 1.253906 -0.9375 1.285156 -0.953125 1.328125 -0.953125 C 1.640625 -0.953125 1.925781 -0.972656 2.1875 -1.015625 C 2.445312 -1.054688 2.664062 -1.144531 2.84375 -1.28125 C 3.019531 -1.414062 3.160156 -1.609375 3.265625 -1.859375 C 3.367188 -2.109375 3.421875 -2.453125 3.421875 -2.890625 L 3.421875 -16.53125 C 3.421875 -16.832031 3.367188 -17.085938 3.265625 -17.296875 C 3.171875 -17.503906 3.035156 -17.671875 2.859375 -17.796875 C 2.691406 -17.929688 2.476562 -18.023438 2.21875 -18.078125 C 1.957031 -18.128906 1.671875 -18.15625 1.359375 -18.15625 C 1.285156 -18.15625 1.25 -18.191406 1.25 -18.265625 L 1.25 -19 C 1.25 -19.070312 1.285156 -19.109375 1.359375 -19.109375 L 9.359375 -19.109375 C 9.410156 -19.109375 9.441406 -19.09375 9.453125 -19.0625 C 9.460938 -19.039062 9.46875 -19.019531 9.46875 -19 L 9.46875 -18.265625 C 9.46875 -18.242188 9.460938 -18.21875 9.453125 -18.1875 C 9.441406 -18.164062 9.410156 -18.15625 9.359375 -18.15625 C 9.046875 -18.15625 8.757812 -18.132812 8.5 -18.09375 C 8.238281 -18.050781 8.019531 -17.960938 7.84375 -17.828125 C 7.664062 -17.691406 7.523438 -17.5 7.421875 -17.25 C 7.328125 -17 7.28125 -16.65625 7.28125 -16.21875 Z M 7.28125 -2.578125 "/></g></g></g><g fill="#000000" fill-opacity="1"><g transform="translate(111.454657, 367.366162)"><g><path d="M 0.921875 0 C 0.898438 0 0.875 -0.0078125 0.84375 -0.03125 C 0.820312 -0.0507812 0.8125 -0.078125 0.8125 -0.109375 L 0.8125 -0.703125 C 0.8125 -0.773438 0.847656 -0.8125 0.921875 -0.8125 C 1.023438 -0.8125 1.140625 -0.8125 1.265625 -0.8125 C 1.390625 -0.8125 1.507812 -0.816406 1.625 -0.828125 C 1.75 -0.835938 1.859375 -0.847656 1.953125 -0.859375 C 2.054688 -0.867188 2.132812 -0.882812 2.1875 -0.90625 C 2.414062 -1.019531 2.601562 -1.164062 2.75 -1.34375 C 2.894531 -1.519531 3.003906 -1.722656 3.078125 -1.953125 C 3.160156 -2.191406 3.210938 -2.453125 3.234375 -2.734375 C 3.265625 -3.015625 3.28125 -3.3125 3.28125 -3.625 L 3.28125 -17.171875 C 3.28125 -17.410156 3.179688 -17.601562 2.984375 -17.75 C 2.796875 -17.90625 2.570312 -18.019531 2.3125 -18.09375 C 2.050781 -18.175781 1.785156 -18.226562 1.515625 -18.25 C 1.253906 -18.28125 1.054688 -18.296875 0.921875 -18.296875 C 0.878906 -18.296875 0.847656 -18.304688 0.828125 -18.328125 C 0.816406 -18.359375 0.8125 -18.382812 0.8125 -18.40625 L 0.8125 -19 C 0.8125 -19.019531 0.816406 -19.039062 0.828125 -19.0625 C 0.847656 -19.09375 0.878906 -19.109375 0.921875 -19.109375 L 7.0625 -19.109375 L 18.734375 -6.171875 C 18.785156 -6.128906 18.816406 -6.097656 18.828125 -6.078125 C 18.847656 -6.054688 18.875 -6.046875 18.90625 -6.046875 C 18.9375 -6.046875 18.957031 -6.054688 18.96875 -6.078125 C 18.976562 -6.109375 18.984375 -6.140625 18.984375 -6.171875 L 18.984375 -14.21875 C 18.984375 -15.113281 18.953125 -15.828125 18.890625 -16.359375 C 18.828125 -16.898438 18.707031 -17.3125 18.53125 -17.59375 C 18.363281 -17.875 18.132812 -18.0625 17.84375 -18.15625 C 17.550781 -18.25 17.179688 -18.296875 16.734375 -18.296875 L 16.046875 -18.296875 C 15.992188 -18.296875 15.960938 -18.304688 15.953125 -18.328125 C 15.941406 -18.359375 15.9375 -18.382812 15.9375 -18.40625 L 15.9375 -19 C 15.9375 -19.019531 15.941406 -19.039062 15.953125 -19.0625 C 15.960938 -19.09375 15.992188 -19.109375 16.046875 -19.109375 L 23.5 -19.109375 C 23.550781 -19.109375 23.582031 -19.09375 23.59375 -19.0625 C 23.601562 -19.039062 23.609375 -19.019531 23.609375 -19 L 23.609375 -18.40625 C 23.609375 -18.382812 23.597656 -18.359375 23.578125 -18.328125 C 23.566406 -18.304688 23.539062 -18.296875 23.5 -18.296875 C 23.3125 -18.296875 23.078125 -18.257812 22.796875 -18.1875 C 22.515625 -18.113281 22.238281 -18.007812 21.96875 -17.875 C 21.695312 -17.738281 21.460938 -17.570312 21.265625 -17.375 C 21.066406 -17.175781 20.96875 -16.945312 20.96875 -16.6875 L 20.96875 -0.65625 C 20.96875 -0.507812 20.929688 -0.382812 20.859375 -0.28125 C 20.796875 -0.175781 20.707031 -0.09375 20.59375 -0.03125 C 20.476562 0.03125 20.351562 0.078125 20.21875 0.109375 C 20.09375 0.140625 19.972656 0.15625 19.859375 0.15625 C 19.679688 0.15625 19.472656 0.117188 19.234375 0.046875 C 18.992188 -0.0234375 18.753906 -0.191406 18.515625 -0.453125 L 5.734375 -14.640625 C 5.671875 -14.710938 5.625 -14.753906 5.59375 -14.765625 C 5.570312 -14.773438 5.535156 -14.78125 5.484375 -14.78125 C 5.441406 -14.78125 5.421875 -14.734375 5.421875 -14.640625 L 5.421875 -2.546875 C 5.421875 -2.296875 5.476562 -2.078125 5.59375 -1.890625 C 5.71875 -1.703125 5.875 -1.539062 6.0625 -1.40625 C 6.257812 -1.28125 6.472656 -1.175781 6.703125 -1.09375 C 6.929688 -1.019531 7.15625 -0.960938 7.375 -0.921875 C 7.59375 -0.878906 7.789062 -0.847656 7.96875 -0.828125 C 8.144531 -0.816406 8.28125 -0.8125 8.375 -0.8125 C 8.414062 -0.8125 8.445312 -0.796875 8.46875 -0.765625 C 8.476562 -0.742188 8.484375 -0.722656 8.484375 -0.703125 L 8.484375 -0.109375 C 8.484375 -0.0859375 8.472656 -0.0625 8.453125 -0.03125 C 8.441406 -0.0078125 8.414062 0 8.375 0 Z M 0.921875 0 "/></g></g></g><g fill="#000000" fill-opacity="1"><g transform="translate(138.227532, 367.366162)"><g><path d="M 12.03125 -11.09375 C 12.15625 -11.09375 12.320312 -11.101562 12.53125 -11.125 C 12.738281 -11.15625 12.9375 -11.222656 13.125 -11.328125 C 13.320312 -11.441406 13.488281 -11.617188 13.625 -11.859375 C 13.769531 -12.097656 13.84375 -12.4375 13.84375 -12.875 C 13.84375 -12.945312 13.878906 -12.984375 13.953125 -12.984375 L 14.484375 -12.984375 C 14.554688 -12.984375 14.59375 -12.945312 14.59375 -12.875 L 14.59375 -7.421875 C 14.59375 -7.378906 14.578125 -7.347656 14.546875 -7.328125 C 14.523438 -7.316406 14.503906 -7.3125 14.484375 -7.3125 L 13.953125 -7.3125 C 13.910156 -7.3125 13.878906 -7.320312 13.859375 -7.34375 C 13.847656 -7.375 13.84375 -7.398438 13.84375 -7.421875 C 13.84375 -7.910156 13.769531 -8.285156 13.625 -8.546875 C 13.488281 -8.816406 13.328125 -9.015625 13.140625 -9.140625 C 12.953125 -9.265625 12.753906 -9.335938 12.546875 -9.359375 C 12.347656 -9.390625 12.1875 -9.40625 12.0625 -9.40625 L 7.53125 -9.40625 C 7.425781 -9.40625 7.34375 -9.367188 7.28125 -9.296875 C 7.226562 -9.234375 7.203125 -9.144531 7.203125 -9.03125 L 7.203125 -2.546875 C 7.203125 -2.304688 7.25 -2.101562 7.34375 -1.9375 C 7.445312 -1.769531 7.582031 -1.625 7.75 -1.5 C 7.914062 -1.375 8.109375 -1.265625 8.328125 -1.171875 C 8.554688 -1.085938 8.804688 -1.003906 9.078125 -0.921875 C 9.210938 -0.878906 9.359375 -0.835938 9.515625 -0.796875 C 9.671875 -0.765625 9.796875 -0.75 9.890625 -0.75 C 9.941406 -0.75 9.972656 -0.734375 9.984375 -0.703125 C 9.992188 -0.671875 10 -0.648438 10 -0.640625 L 10 -0.109375 C 10 -0.0859375 9.988281 -0.0625 9.96875 -0.03125 C 9.957031 -0.0078125 9.929688 0 9.890625 0 L 1.28125 0 C 1.226562 0 1.195312 -0.0078125 1.1875 -0.03125 C 1.175781 -0.0625 1.171875 -0.0859375 1.171875 -0.109375 L 1.171875 -0.640625 C 1.171875 -0.648438 1.171875 -0.671875 1.171875 -0.703125 C 1.179688 -0.734375 1.21875 -0.75 1.28125 -0.75 C 1.375 -0.75 1.5 -0.769531 1.65625 -0.8125 C 1.8125 -0.851562 1.929688 -0.890625 2.015625 -0.921875 C 2.410156 -1.085938 2.726562 -1.3125 2.96875 -1.59375 C 3.21875 -1.882812 3.34375 -2.234375 3.34375 -2.640625 L 3.34375 -17.078125 C 3.34375 -17.421875 3.25 -17.691406 3.0625 -17.890625 C 2.875 -18.085938 2.660156 -18.234375 2.421875 -18.328125 C 2.179688 -18.429688 1.953125 -18.492188 1.734375 -18.515625 C 1.523438 -18.546875 1.394531 -18.5625 1.34375 -18.5625 L 1.28125 -18.5625 C 1.238281 -18.5625 1.207031 -18.570312 1.1875 -18.59375 C 1.175781 -18.625 1.171875 -18.648438 1.171875 -18.671875 L 1.171875 -19 C 1.171875 -19.019531 1.175781 -19.039062 1.1875 -19.0625 C 1.207031 -19.09375 1.238281 -19.109375 1.28125 -19.109375 L 14.671875 -19.109375 C 14.785156 -19.085938 14.867188 -19.0625 14.921875 -19.03125 C 14.972656 -19 15 -18.921875 15 -18.796875 L 15 -15.109375 C 15 -15.003906 14.96875 -14.9375 14.90625 -14.90625 C 14.84375 -14.875 14.769531 -14.859375 14.6875 -14.859375 L 14.421875 -14.859375 C 14.398438 -14.867188 14.375 -14.945312 14.34375 -15.09375 C 14.3125 -15.25 14.265625 -15.425781 14.203125 -15.625 C 14.148438 -15.832031 14.085938 -16.035156 14.015625 -16.234375 C 13.941406 -16.441406 13.851562 -16.601562 13.75 -16.71875 C 13.625 -16.851562 13.503906 -16.960938 13.390625 -17.046875 C 13.273438 -17.140625 13.144531 -17.210938 13 -17.265625 C 12.851562 -17.328125 12.679688 -17.363281 12.484375 -17.375 C 12.296875 -17.394531 12.066406 -17.40625 11.796875 -17.40625 L 7.484375 -17.40625 C 7.296875 -17.40625 7.203125 -17.316406 7.203125 -17.140625 L 7.203125 -11.40625 C 7.203125 -11.195312 7.3125 -11.09375 7.53125 -11.09375 Z M 12.03125 -11.09375 "/></g></g></g><g fill="#000000" fill-opacity="1"><g transform="translate(157.344058, 367.366162)"><g><path d="M 12.21875 0.359375 C 11.90625 0.359375 11.507812 0.328125 11.03125 0.265625 C 10.5625 0.210938 10.039062 0.113281 9.46875 -0.03125 C 8.90625 -0.175781 8.316406 -0.363281 7.703125 -0.59375 C 7.085938 -0.832031 6.484375 -1.132812 5.890625 -1.5 C 5.304688 -1.863281 4.75 -2.296875 4.21875 -2.796875 C 3.6875 -3.296875 3.21875 -3.878906 2.8125 -4.546875 C 2.40625 -5.210938 2.082031 -5.96875 1.84375 -6.8125 C 1.601562 -7.664062 1.484375 -8.617188 1.484375 -9.671875 C 1.484375 -10.609375 1.613281 -11.503906 1.875 -12.359375 C 2.132812 -13.222656 2.503906 -14.023438 2.984375 -14.765625 C 3.460938 -15.503906 4.039062 -16.175781 4.71875 -16.78125 C 5.40625 -17.394531 6.164062 -17.910156 7 -18.328125 C 7.84375 -18.753906 8.753906 -19.082031 9.734375 -19.3125 C 10.722656 -19.550781 11.757812 -19.671875 12.84375 -19.671875 C 13.78125 -19.671875 14.6875 -19.554688 15.5625 -19.328125 C 16.445312 -19.097656 17.273438 -18.769531 18.046875 -18.34375 C 18.816406 -17.925781 19.519531 -17.425781 20.15625 -16.84375 C 20.789062 -16.257812 21.335938 -15.601562 21.796875 -14.875 C 22.265625 -14.15625 22.625 -13.375 22.875 -12.53125 C 23.125 -11.695312 23.25 -10.832031 23.25 -9.9375 C 23.25 -9.082031 23.125 -8.238281 22.875 -7.40625 C 22.632812 -6.570312 22.285156 -5.769531 21.828125 -5 C 21.367188 -4.238281 20.8125 -3.53125 20.15625 -2.875 C 19.5 -2.226562 18.765625 -1.660156 17.953125 -1.171875 C 17.140625 -0.691406 16.25 -0.316406 15.28125 -0.046875 C 14.3125 0.222656 13.289062 0.359375 12.21875 0.359375 Z M 5.46875 -10.171875 C 5.46875 -9.441406 5.539062 -8.710938 5.6875 -7.984375 C 5.84375 -7.253906 6.0625 -6.546875 6.34375 -5.859375 C 6.632812 -5.179688 6.992188 -4.546875 7.421875 -3.953125 C 7.847656 -3.367188 8.332031 -2.859375 8.875 -2.421875 C 9.414062 -1.984375 10.019531 -1.640625 10.6875 -1.390625 C 11.351562 -1.140625 12.070312 -1.015625 12.84375 -1.015625 C 13.9375 -1.015625 14.882812 -1.242188 15.6875 -1.703125 C 16.488281 -2.171875 17.15625 -2.789062 17.6875 -3.5625 C 18.21875 -4.332031 18.609375 -5.210938 18.859375 -6.203125 C 19.117188 -7.203125 19.25 -8.238281 19.25 -9.3125 C 19.25 -10.082031 19.175781 -10.835938 19.03125 -11.578125 C 18.882812 -12.328125 18.664062 -13.039062 18.375 -13.71875 C 18.09375 -14.394531 17.738281 -15.015625 17.3125 -15.578125 C 16.894531 -16.140625 16.410156 -16.628906 15.859375 -17.046875 C 15.316406 -17.460938 14.710938 -17.785156 14.046875 -18.015625 C 13.390625 -18.242188 12.671875 -18.359375 11.890625 -18.359375 C 11.203125 -18.359375 10.5625 -18.25 9.96875 -18.03125 C 9.382812 -17.8125 8.851562 -17.515625 8.375 -17.140625 C 7.90625 -16.765625 7.488281 -16.316406 7.125 -15.796875 C 6.757812 -15.285156 6.457031 -14.726562 6.21875 -14.125 C 5.976562 -13.519531 5.789062 -12.878906 5.65625 -12.203125 C 5.53125 -11.523438 5.46875 -10.847656 5.46875 -10.171875 Z M 5.46875 -10.171875 "/></g></g></g><g fill="#000000" fill-opacity="1"><g transform="translate(184.780923, 367.366162)"><g><path d="M 8.234375 -17.03125 C 8.234375 -17.21875 8.195312 -17.320312 8.125 -17.34375 C 8.050781 -17.375 7.957031 -17.394531 7.84375 -17.40625 L 3.25 -17.40625 C 2.914062 -17.332031 2.65625 -17.195312 2.46875 -17 C 2.28125 -16.8125 2.128906 -16.585938 2.015625 -16.328125 C 1.910156 -16.066406 1.828125 -15.785156 1.765625 -15.484375 C 1.710938 -15.179688 1.65625 -14.890625 1.59375 -14.609375 C 1.582031 -14.523438 1.566406 -14.425781 1.546875 -14.3125 C 1.523438 -14.195312 1.503906 -14.132812 1.484375 -14.125 C 1.472656 -14.09375 1.441406 -14.078125 1.390625 -14.078125 L 0.953125 -14.078125 C 0.898438 -14.078125 0.875 -14.09375 0.875 -14.125 L 0.875 -14.578125 L 1.375 -19.21875 C 1.382812 -19.3125 1.421875 -19.40625 1.484375 -19.5 C 1.546875 -19.59375 1.644531 -19.640625 1.78125 -19.640625 C 1.851562 -19.640625 1.914062 -19.617188 1.96875 -19.578125 C 2.03125 -19.546875 2.085938 -19.503906 2.140625 -19.453125 C 2.191406 -19.398438 2.242188 -19.347656 2.296875 -19.296875 C 2.347656 -19.253906 2.398438 -19.226562 2.453125 -19.21875 C 2.554688 -19.164062 2.65625 -19.132812 2.75 -19.125 C 2.851562 -19.113281 2.960938 -19.109375 3.078125 -19.109375 L 17.28125 -19.109375 C 17.394531 -19.109375 17.5 -19.113281 17.59375 -19.125 C 17.6875 -19.132812 17.789062 -19.164062 17.90625 -19.21875 C 17.957031 -19.226562 18.003906 -19.253906 18.046875 -19.296875 C 18.097656 -19.347656 18.148438 -19.398438 18.203125 -19.453125 C 18.265625 -19.503906 18.320312 -19.546875 18.375 -19.578125 C 18.4375 -19.617188 18.5 -19.640625 18.5625 -19.640625 C 18.695312 -19.640625 18.796875 -19.59375 18.859375 -19.5 C 18.921875 -19.40625 18.960938 -19.3125 18.984375 -19.21875 L 19.484375 -14.578125 L 19.484375 -14.125 C 19.484375 -14.09375 19.457031 -14.078125 19.40625 -14.078125 L 18.953125 -14.078125 C 18.910156 -14.078125 18.878906 -14.09375 18.859375 -14.125 C 18.835938 -14.132812 18.816406 -14.195312 18.796875 -14.3125 C 18.785156 -14.425781 18.769531 -14.523438 18.75 -14.609375 C 18.6875 -14.890625 18.628906 -15.179688 18.578125 -15.484375 C 18.523438 -15.785156 18.441406 -16.066406 18.328125 -16.328125 C 18.222656 -16.585938 18.070312 -16.8125 17.875 -17 C 17.6875 -17.195312 17.425781 -17.332031 17.09375 -17.40625 L 12.5 -17.40625 C 12.382812 -17.394531 12.285156 -17.375 12.203125 -17.34375 C 12.128906 -17.320312 12.09375 -17.21875 12.09375 -17.03125 L 12.09375 -2.640625 C 12.09375 -2.367188 12.160156 -2.125 12.296875 -1.90625 C 12.429688 -1.695312 12.613281 -1.507812 12.84375 -1.34375 C 13.082031 -1.1875 13.351562 -1.054688 13.65625 -0.953125 C 13.96875 -0.859375 14.300781 -0.796875 14.65625 -0.765625 C 14.757812 -0.753906 14.882812 -0.75 15.03125 -0.75 C 15.1875 -0.75 15.320312 -0.75 15.4375 -0.75 C 15.476562 -0.75 15.503906 -0.734375 15.515625 -0.703125 C 15.535156 -0.671875 15.546875 -0.648438 15.546875 -0.640625 L 15.546875 -0.109375 C 15.546875 -0.0859375 15.535156 -0.0625 15.515625 -0.03125 C 15.503906 -0.0078125 15.476562 0 15.4375 0 L 4.90625 0 C 4.863281 0 4.832031 -0.0078125 4.8125 -0.03125 C 4.800781 -0.0625 4.796875 -0.0859375 4.796875 -0.109375 L 4.796875 -0.640625 C 4.796875 -0.648438 4.800781 -0.671875 4.8125 -0.703125 C 4.832031 -0.734375 4.863281 -0.75 4.90625 -0.75 C 5 -0.75 5.125 -0.75 5.28125 -0.75 C 5.445312 -0.75 5.578125 -0.753906 5.671875 -0.765625 C 6.023438 -0.796875 6.359375 -0.859375 6.671875 -0.953125 C 6.984375 -1.054688 7.253906 -1.1875 7.484375 -1.34375 C 7.710938 -1.507812 7.894531 -1.695312 8.03125 -1.90625 C 8.164062 -2.125 8.234375 -2.367188 8.234375 -2.640625 Z M 8.234375 -17.03125 "/></g></g></g><g fill="#000000" fill-opacity="1"><g transform="translate(207.827248, 367.366162)"><g><path d="M 0.09375 -0.6875 C 0.09375 -0.695312 0.0976562 -0.71875 0.109375 -0.75 C 0.117188 -0.78125 0.148438 -0.796875 0.203125 -0.796875 L 0.5 -0.796875 C 0.882812 -0.828125 1.273438 -0.84375 1.671875 -0.84375 C 2.066406 -0.851562 2.425781 -0.90625 2.75 -1 C 3.070312 -1.09375 3.335938 -1.257812 3.546875 -1.5 C 3.753906 -1.738281 3.859375 -2.109375 3.859375 -2.609375 L 3.859375 -16.484375 C 3.859375 -16.835938 3.785156 -17.125 3.640625 -17.34375 C 3.492188 -17.570312 3.300781 -17.753906 3.0625 -17.890625 C 2.832031 -18.023438 2.566406 -18.125 2.265625 -18.1875 C 1.972656 -18.257812 1.675781 -18.316406 1.375 -18.359375 L 1.078125 -18.359375 C 1.035156 -18.359375 1.003906 -18.367188 0.984375 -18.390625 C 0.972656 -18.421875 0.96875 -18.445312 0.96875 -18.46875 L 0.96875 -19 C 0.96875 -19.019531 0.972656 -19.039062 0.984375 -19.0625 C 1.003906 -19.09375 1.035156 -19.109375 1.078125 -19.109375 L 14.578125 -19.109375 C 14.742188 -19.109375 14.863281 -19.078125 14.9375 -19.015625 C 15.007812 -18.953125 15.050781 -18.820312 15.0625 -18.625 L 15.3125 -14.296875 C 15.3125 -14.253906 15.269531 -14.21875 15.1875 -14.1875 C 15.113281 -14.164062 15.046875 -14.15625 14.984375 -14.15625 C 14.910156 -14.15625 14.835938 -14.164062 14.765625 -14.1875 C 14.691406 -14.207031 14.644531 -14.234375 14.625 -14.265625 C 14.5625 -14.359375 14.515625 -14.492188 14.484375 -14.671875 C 14.453125 -14.847656 14.421875 -15.039062 14.390625 -15.25 C 14.359375 -15.46875 14.3125 -15.691406 14.25 -15.921875 C 14.195312 -16.160156 14.113281 -16.378906 14 -16.578125 C 13.882812 -16.785156 13.722656 -16.960938 13.515625 -17.109375 C 13.316406 -17.253906 13.054688 -17.351562 12.734375 -17.40625 L 7.90625 -17.40625 C 7.78125 -17.40625 7.71875 -17.347656 7.71875 -17.234375 L 7.71875 -10.765625 C 7.71875 -10.679688 7.765625 -10.640625 7.859375 -10.640625 L 11.734375 -10.640625 C 11.960938 -10.640625 12.1875 -10.664062 12.40625 -10.71875 C 12.625 -10.78125 12.816406 -10.890625 12.984375 -11.046875 C 13.148438 -11.203125 13.285156 -11.414062 13.390625 -11.6875 C 13.492188 -11.957031 13.546875 -12.3125 13.546875 -12.75 C 13.546875 -12.820312 13.582031 -12.859375 13.65625 -12.859375 L 14.1875 -12.859375 C 14.257812 -12.859375 14.296875 -12.820312 14.296875 -12.75 L 14.296875 -6.546875 C 14.296875 -6.503906 14.28125 -6.472656 14.25 -6.453125 C 14.226562 -6.441406 14.207031 -6.4375 14.1875 -6.4375 L 13.65625 -6.4375 C 13.613281 -6.4375 13.582031 -6.445312 13.5625 -6.46875 C 13.550781 -6.5 13.546875 -6.523438 13.546875 -6.546875 C 13.546875 -7.046875 13.492188 -7.453125 13.390625 -7.765625 C 13.285156 -8.078125 13.144531 -8.320312 12.96875 -8.5 C 12.800781 -8.675781 12.609375 -8.789062 12.390625 -8.84375 C 12.171875 -8.90625 11.9375 -8.9375 11.6875 -8.9375 L 7.859375 -8.9375 C 7.765625 -8.9375 7.71875 -8.894531 7.71875 -8.8125 L 7.71875 -2.890625 C 7.71875 -2.628906 7.757812 -2.414062 7.84375 -2.25 C 7.925781 -2.09375 8.035156 -1.972656 8.171875 -1.890625 C 8.316406 -1.816406 8.476562 -1.765625 8.65625 -1.734375 C 8.832031 -1.703125 9.023438 -1.6875 9.234375 -1.6875 L 12.921875 -1.6875 C 13.453125 -1.6875 13.890625 -1.804688 14.234375 -2.046875 C 14.585938 -2.285156 14.875 -2.578125 15.09375 -2.921875 C 15.3125 -3.265625 15.472656 -3.617188 15.578125 -3.984375 C 15.679688 -4.359375 15.742188 -4.679688 15.765625 -4.953125 C 15.785156 -5.066406 15.84375 -5.15625 15.9375 -5.21875 C 16.039062 -5.289062 16.15625 -5.328125 16.28125 -5.328125 C 16.332031 -5.328125 16.390625 -5.304688 16.453125 -5.265625 C 16.515625 -5.234375 16.546875 -5.195312 16.546875 -5.15625 L 16.09375 -0.1875 C 16.070312 -0.144531 16.046875 -0.101562 16.015625 -0.0625 C 15.984375 -0.0195312 15.945312 0 15.90625 0 L 0.203125 0 C 0.148438 0 0.117188 -0.015625 0.109375 -0.046875 C 0.0976562 -0.078125 0.09375 -0.0976562 0.09375 -0.109375 Z M 0.09375 -0.6875 "/></g></g></g><g fill="#000000" fill-opacity="1"><g transform="translate(228.25823, 367.366162)"><g><path d="M 1.421875 -9.4375 C 1.421875 -10.445312 1.546875 -11.398438 1.796875 -12.296875 C 2.054688 -13.191406 2.414062 -14.019531 2.875 -14.78125 C 3.332031 -15.539062 3.882812 -16.222656 4.53125 -16.828125 C 5.1875 -17.429688 5.910156 -17.941406 6.703125 -18.359375 C 7.492188 -18.785156 8.335938 -19.109375 9.234375 -19.328125 C 10.140625 -19.554688 11.085938 -19.671875 12.078125 -19.671875 C 12.898438 -19.671875 13.695312 -19.597656 14.46875 -19.453125 C 15.25 -19.304688 16.050781 -19.128906 16.875 -18.921875 C 17.007812 -18.890625 17.148438 -18.847656 17.296875 -18.796875 C 17.441406 -18.742188 17.578125 -18.691406 17.703125 -18.640625 C 17.835938 -18.585938 17.957031 -18.539062 18.0625 -18.5 C 18.175781 -18.46875 18.257812 -18.453125 18.3125 -18.453125 C 18.332031 -18.453125 18.394531 -18.46875 18.5 -18.5 C 18.601562 -18.539062 18.675781 -18.5625 18.71875 -18.5625 L 19.34375 -18.5625 C 19.457031 -18.5625 19.515625 -18.484375 19.515625 -18.328125 L 19.515625 -13.921875 C 19.515625 -13.859375 19.492188 -13.816406 19.453125 -13.796875 C 19.410156 -13.785156 19.320312 -13.78125 19.1875 -13.78125 C 19.15625 -13.78125 19.082031 -13.78125 18.96875 -13.78125 C 18.863281 -13.789062 18.796875 -13.816406 18.765625 -13.859375 C 18.742188 -13.890625 18.707031 -13.941406 18.65625 -14.015625 C 18.613281 -14.097656 18.5625 -14.179688 18.5 -14.265625 C 18.445312 -14.359375 18.394531 -14.441406 18.34375 -14.515625 C 18.289062 -14.597656 18.257812 -14.648438 18.25 -14.671875 C 17.90625 -15.347656 17.53125 -15.921875 17.125 -16.390625 C 16.71875 -16.859375 16.269531 -17.234375 15.78125 -17.515625 C 15.289062 -17.804688 14.753906 -18.015625 14.171875 -18.140625 C 13.597656 -18.273438 12.972656 -18.34375 12.296875 -18.34375 C 11.429688 -18.34375 10.664062 -18.242188 10 -18.046875 C 9.34375 -17.847656 8.765625 -17.566406 8.265625 -17.203125 C 7.765625 -16.847656 7.34375 -16.414062 7 -15.90625 C 6.664062 -15.40625 6.390625 -14.851562 6.171875 -14.25 C 5.960938 -13.644531 5.8125 -13 5.71875 -12.3125 C 5.625 -11.632812 5.578125 -10.9375 5.578125 -10.21875 C 5.578125 -9.445312 5.628906 -8.679688 5.734375 -7.921875 C 5.847656 -7.171875 6.023438 -6.453125 6.265625 -5.765625 C 6.515625 -5.085938 6.832031 -4.457031 7.21875 -3.875 C 7.601562 -3.300781 8.066406 -2.796875 8.609375 -2.359375 C 9.148438 -1.929688 9.78125 -1.59375 10.5 -1.34375 C 11.21875 -1.101562 12.035156 -0.984375 12.953125 -0.984375 C 13.722656 -0.984375 14.4375 -1.097656 15.09375 -1.328125 C 15.757812 -1.566406 16.367188 -1.878906 16.921875 -2.265625 C 17.472656 -2.660156 17.960938 -3.113281 18.390625 -3.625 C 18.816406 -4.132812 19.1875 -4.671875 19.5 -5.234375 C 19.519531 -5.273438 19.539062 -5.296875 19.5625 -5.296875 C 19.582031 -5.304688 19.613281 -5.3125 19.65625 -5.3125 L 20.359375 -5.3125 C 20.378906 -5.3125 20.40625 -5.300781 20.4375 -5.28125 C 20.46875 -5.257812 20.484375 -5.210938 20.484375 -5.140625 C 20.484375 -5.109375 20.460938 -5.035156 20.421875 -4.921875 C 20.378906 -4.804688 20.335938 -4.710938 20.296875 -4.640625 L 18.421875 -0.515625 C 18.410156 -0.484375 18.382812 -0.457031 18.34375 -0.4375 C 18.3125 -0.425781 18.28125 -0.421875 18.25 -0.421875 C 18.03125 -0.421875 17.878906 -0.4375 17.796875 -0.46875 C 17.710938 -0.507812 17.625 -0.53125 17.53125 -0.53125 C 17.257812 -0.53125 16.898438 -0.484375 16.453125 -0.390625 C 16.003906 -0.296875 15.519531 -0.191406 15 -0.078125 C 14.488281 0.0234375 13.96875 0.125 13.4375 0.21875 C 12.90625 0.3125 12.429688 0.359375 12.015625 0.359375 C 11.066406 0.359375 10.144531 0.253906 9.25 0.046875 C 8.351562 -0.148438 7.515625 -0.445312 6.734375 -0.84375 C 5.953125 -1.238281 5.234375 -1.722656 4.578125 -2.296875 C 3.929688 -2.867188 3.367188 -3.515625 2.890625 -4.234375 C 2.421875 -4.960938 2.054688 -5.757812 1.796875 -6.625 C 1.546875 -7.5 1.421875 -8.4375 1.421875 -9.4375 Z M 1.421875 -9.4375 "/></g></g></g><g fill="#000000" fill-opacity="1"><g transform="translate(252.483506, 367.366162)"><g><path d="M 0.921875 0 C 0.878906 0 0.847656 -0.0078125 0.828125 -0.03125 C 0.816406 -0.0625 0.8125 -0.0859375 0.8125 -0.109375 L 0.8125 -0.84375 C 0.8125 -0.863281 0.816406 -0.882812 0.828125 -0.90625 C 0.847656 -0.9375 0.878906 -0.953125 0.921875 -0.953125 C 1.203125 -0.953125 1.484375 -0.972656 1.765625 -1.015625 C 2.046875 -1.054688 2.304688 -1.144531 2.546875 -1.28125 C 2.785156 -1.414062 2.976562 -1.609375 3.125 -1.859375 C 3.269531 -2.109375 3.34375 -2.453125 3.34375 -2.890625 L 3.34375 -16.46875 C 3.34375 -16.769531 3.289062 -17.023438 3.1875 -17.234375 C 3.09375 -17.441406 2.953125 -17.609375 2.765625 -17.734375 C 2.585938 -17.867188 2.375 -17.96875 2.125 -18.03125 C 1.875 -18.09375 1.59375 -18.132812 1.28125 -18.15625 C 1.207031 -18.15625 1.171875 -18.191406 1.171875 -18.265625 L 1.171875 -19 C 1.171875 -19.070312 1.207031 -19.109375 1.28125 -19.109375 L 9.296875 -19.109375 C 9.335938 -19.109375 9.363281 -19.09375 9.375 -19.0625 C 9.394531 -19.039062 9.40625 -19.019531 9.40625 -19 L 9.40625 -18.265625 C 9.40625 -18.210938 9.367188 -18.1875 9.296875 -18.1875 C 9.023438 -18.1875 8.757812 -18.160156 8.5 -18.109375 C 8.25 -18.054688 8.03125 -17.960938 7.84375 -17.828125 C 7.65625 -17.691406 7.5 -17.5 7.375 -17.25 C 7.257812 -17.007812 7.203125 -16.679688 7.203125 -16.265625 L 7.203125 -10.6875 C 7.203125 -10.601562 7.21875 -10.546875 7.25 -10.515625 C 7.28125 -10.484375 7.335938 -10.46875 7.421875 -10.46875 L 16.890625 -10.46875 C 16.972656 -10.46875 17.023438 -10.484375 17.046875 -10.515625 C 17.078125 -10.546875 17.09375 -10.601562 17.09375 -10.6875 L 17.09375 -16.484375 C 17.09375 -16.804688 16.992188 -17.070312 16.796875 -17.28125 C 16.597656 -17.488281 16.347656 -17.648438 16.046875 -17.765625 C 15.742188 -17.890625 15.414062 -17.976562 15.0625 -18.03125 C 14.707031 -18.09375 14.382812 -18.132812 14.09375 -18.15625 C 14.019531 -18.15625 13.984375 -18.191406 13.984375 -18.265625 L 13.984375 -19 C 13.984375 -19.070312 14.015625 -19.109375 14.078125 -19.109375 L 23.109375 -19.109375 C 23.160156 -19.109375 23.191406 -19.09375 23.203125 -19.0625 C 23.210938 -19.039062 23.21875 -19.019531 23.21875 -19 L 23.21875 -18.265625 C 23.21875 -18.210938 23.179688 -18.1875 23.109375 -18.1875 C 22.835938 -18.1875 22.570312 -18.160156 22.3125 -18.109375 C 22.0625 -18.054688 21.832031 -17.960938 21.625 -17.828125 C 21.425781 -17.691406 21.265625 -17.5 21.140625 -17.25 C 21.023438 -17.007812 20.96875 -16.679688 20.96875 -16.265625 L 20.96875 -2.859375 C 20.96875 -2.617188 21 -2.40625 21.0625 -2.21875 C 21.132812 -2.039062 21.238281 -1.863281 21.375 -1.6875 C 21.519531 -1.476562 21.757812 -1.304688 22.09375 -1.171875 C 22.425781 -1.035156 22.894531 -0.960938 23.5 -0.953125 C 23.570312 -0.953125 23.609375 -0.914062 23.609375 -0.84375 L 23.609375 -0.109375 C 23.609375 -0.0351562 23.570312 0 23.5 0 L 13.65625 0 C 13.613281 0 13.582031 -0.0078125 13.5625 -0.03125 C 13.550781 -0.0625 13.546875 -0.0859375 13.546875 -0.109375 L 13.546875 -0.84375 C 13.546875 -0.863281 13.550781 -0.882812 13.5625 -0.90625 C 13.582031 -0.9375 13.613281 -0.953125 13.65625 -0.953125 C 13.925781 -0.953125 14.253906 -0.96875 14.640625 -1 C 15.035156 -1.039062 15.414062 -1.117188 15.78125 -1.234375 C 16.144531 -1.359375 16.453125 -1.535156 16.703125 -1.765625 C 16.960938 -1.992188 17.09375 -2.304688 17.09375 -2.703125 L 17.09375 -8.5625 C 17.09375 -8.65625 17.078125 -8.710938 17.046875 -8.734375 C 17.023438 -8.765625 16.972656 -8.78125 16.890625 -8.78125 L 7.421875 -8.78125 C 7.335938 -8.78125 7.28125 -8.765625 7.25 -8.734375 C 7.21875 -8.710938 7.203125 -8.65625 7.203125 -8.5625 L 7.203125 -2.578125 C 7.203125 -2.265625 7.269531 -2.003906 7.40625 -1.796875 C 7.539062 -1.585938 7.71875 -1.421875 7.9375 -1.296875 C 8.164062 -1.171875 8.421875 -1.082031 8.703125 -1.03125 C 8.992188 -0.976562 9.296875 -0.953125 9.609375 -0.953125 C 9.660156 -0.953125 9.691406 -0.9375 9.703125 -0.90625 C 9.710938 -0.882812 9.71875 -0.863281 9.71875 -0.84375 L 9.71875 -0.109375 C 9.71875 -0.0859375 9.710938 -0.0625 9.703125 -0.03125 C 9.691406 -0.0078125 9.664062 0 9.625 0 Z M 0.921875 0 "/></g></g></g><g fill="#000000" fill-opacity="1"><g transform="translate(112.687474, 332.157602)"><g><path d="M 2.421875 -0.484375 C 2.265625 -0.484375 2.171875 -0.609375 2.140625 -0.859375 C 2.003906 -1.972656 1.898438 -2.835938 1.828125 -3.453125 C 1.753906 -4.066406 1.703125 -4.523438 1.671875 -4.828125 C 1.648438 -5.140625 1.632812 -5.335938 1.625 -5.421875 C 1.625 -5.515625 1.625 -5.582031 1.625 -5.625 C 1.625 -5.75 1.679688 -5.890625 1.796875 -6.046875 C 1.910156 -6.203125 2.050781 -6.28125 2.21875 -6.28125 C 2.34375 -6.28125 2.472656 -6.207031 2.609375 -6.0625 C 2.742188 -5.925781 2.875 -5.757812 3 -5.5625 C 3.125 -5.375 3.226562 -5.1875 3.3125 -5 C 3.40625 -4.8125 3.460938 -4.675781 3.484375 -4.59375 C 3.796875 -3.9375 4.128906 -3.382812 4.484375 -2.9375 C 4.847656 -2.5 5.257812 -2.144531 5.71875 -1.875 C 6.1875 -1.613281 6.710938 -1.421875 7.296875 -1.296875 C 7.878906 -1.179688 8.539062 -1.125 9.28125 -1.125 C 10.550781 -1.125 11.539062 -1.425781 12.25 -2.03125 C 12.957031 -2.632812 13.3125 -3.609375 13.3125 -4.953125 C 13.3125 -5.722656 13.140625 -6.421875 12.796875 -7.046875 C 12.460938 -7.671875 12.019531 -8.253906 11.46875 -8.796875 C 10.925781 -9.335938 10.304688 -9.847656 9.609375 -10.328125 C 8.910156 -10.816406 8.191406 -11.3125 7.453125 -11.8125 C 6.722656 -12.3125 6.003906 -12.832031 5.296875 -13.375 C 4.597656 -13.914062 3.972656 -14.507812 3.421875 -15.15625 C 2.878906 -15.8125 2.4375 -16.535156 2.09375 -17.328125 C 1.757812 -18.117188 1.59375 -19.015625 1.59375 -20.015625 C 1.59375 -20.617188 1.703125 -21.179688 1.921875 -21.703125 C 2.148438 -22.222656 2.445312 -22.695312 2.8125 -23.125 C 3.175781 -23.550781 3.601562 -23.929688 4.09375 -24.265625 C 4.59375 -24.609375 5.117188 -24.894531 5.671875 -25.125 C 6.234375 -25.363281 6.800781 -25.539062 7.375 -25.65625 C 7.945312 -25.769531 8.507812 -25.828125 9.0625 -25.828125 C 9.5 -25.828125 9.9375 -25.789062 10.375 -25.71875 C 10.820312 -25.644531 11.257812 -25.550781 11.6875 -25.4375 C 12.125 -25.332031 12.5625 -25.21875 13 -25.09375 C 13.445312 -24.96875 13.878906 -24.851562 14.296875 -24.75 L 15.484375 -24.859375 C 15.585938 -24.859375 15.65625 -24.8125 15.6875 -24.71875 C 15.71875 -24.632812 15.738281 -24.554688 15.75 -24.484375 L 16.265625 -20.296875 C 16.265625 -20.242188 16.1875 -20.203125 16.03125 -20.171875 C 15.875 -20.148438 15.753906 -20.140625 15.671875 -20.140625 C 15.597656 -20.140625 15.488281 -20.144531 15.34375 -20.15625 C 15.207031 -20.175781 15.128906 -20.203125 15.109375 -20.234375 C 15.066406 -20.265625 15.019531 -20.335938 14.96875 -20.453125 C 14.914062 -20.566406 14.859375 -20.691406 14.796875 -20.828125 C 14.742188 -20.960938 14.679688 -21.097656 14.609375 -21.234375 C 14.546875 -21.378906 14.476562 -21.503906 14.40625 -21.609375 C 13.84375 -22.492188 13.113281 -23.148438 12.21875 -23.578125 C 11.332031 -24.015625 10.351562 -24.234375 9.28125 -24.234375 C 8.820312 -24.234375 8.390625 -24.175781 7.984375 -24.0625 C 7.585938 -23.957031 7.238281 -23.789062 6.9375 -23.5625 C 6.644531 -23.332031 6.410156 -23.039062 6.234375 -22.6875 C 6.066406 -22.332031 5.984375 -21.90625 5.984375 -21.40625 C 5.984375 -20.675781 6.148438 -20.019531 6.484375 -19.4375 C 6.816406 -18.851562 7.257812 -18.300781 7.8125 -17.78125 C 8.363281 -17.269531 8.992188 -16.769531 9.703125 -16.28125 C 10.410156 -15.789062 11.128906 -15.289062 11.859375 -14.78125 C 12.585938 -14.28125 13.300781 -13.742188 14 -13.171875 C 14.707031 -12.609375 15.335938 -11.984375 15.890625 -11.296875 C 16.441406 -10.609375 16.882812 -9.84375 17.21875 -9 C 17.5625 -8.15625 17.734375 -7.207031 17.734375 -6.15625 C 17.734375 -5.457031 17.613281 -4.804688 17.375 -4.203125 C 17.132812 -3.597656 16.804688 -3.046875 16.390625 -2.546875 C 15.972656 -2.054688 15.484375 -1.617188 14.921875 -1.234375 C 14.367188 -0.859375 13.773438 -0.539062 13.140625 -0.28125 C 12.503906 -0.03125 11.847656 0.15625 11.171875 0.28125 C 10.503906 0.414062 9.851562 0.484375 9.21875 0.484375 C 8.40625 0.484375 7.695312 0.421875 7.09375 0.296875 C 6.5 0.179688 5.984375 0.0507812 5.546875 -0.09375 C 5.117188 -0.238281 4.753906 -0.367188 4.453125 -0.484375 C 4.160156 -0.609375 3.914062 -0.671875 3.71875 -0.671875 C 3.644531 -0.671875 3.59375 -0.664062 3.5625 -0.65625 Z M 2.421875 -0.484375 "/></g></g></g><g fill="#000000" fill-opacity="1"><g transform="translate(135.705153, 332.157602)"><g><path d="M 0.09375 -0.84375 C 0.09375 -0.9375 0.140625 -0.984375 0.234375 -0.984375 C 0.453125 -0.992188 0.710938 -1.023438 1.015625 -1.078125 C 1.328125 -1.128906 1.640625 -1.238281 1.953125 -1.40625 C 2.265625 -1.582031 2.566406 -1.835938 2.859375 -2.171875 C 3.160156 -2.515625 3.410156 -2.984375 3.609375 -3.578125 L 10.765625 -24.328125 C 10.765625 -24.304688 10.765625 -24.304688 10.765625 -24.328125 C 10.773438 -24.359375 10.78125 -24.382812 10.78125 -24.40625 C 10.78125 -24.488281 10.75 -24.59375 10.6875 -24.71875 C 10.625 -24.84375 10.59375 -24.9375 10.59375 -25 C 10.59375 -25.0625 10.613281 -25.09375 10.65625 -25.09375 L 15.8125 -25.09375 C 15.84375 -25.070312 15.878906 -25.054688 15.921875 -25.046875 C 15.960938 -25.035156 15.992188 -25 16.015625 -24.9375 L 23.53125 -3.828125 C 23.65625 -3.492188 23.769531 -3.207031 23.875 -2.96875 C 23.976562 -2.726562 24.101562 -2.515625 24.25 -2.328125 C 24.40625 -2.148438 24.59375 -1.988281 24.8125 -1.84375 C 25.039062 -1.695312 25.332031 -1.546875 25.6875 -1.390625 C 25.851562 -1.304688 26.078125 -1.21875 26.359375 -1.125 C 26.648438 -1.03125 26.925781 -0.984375 27.1875 -0.984375 C 27.25 -0.984375 27.285156 -0.960938 27.296875 -0.921875 C 27.316406 -0.890625 27.328125 -0.851562 27.328125 -0.8125 L 27.328125 -0.140625 C 27.328125 -0.117188 27.316406 -0.0859375 27.296875 -0.046875 C 27.285156 -0.015625 27.25 0 27.1875 0 L 14.703125 0 C 14.640625 0 14.597656 -0.015625 14.578125 -0.046875 C 14.554688 -0.0859375 14.546875 -0.117188 14.546875 -0.140625 L 14.546875 -0.84375 C 14.546875 -0.863281 14.554688 -0.890625 14.578125 -0.921875 C 14.597656 -0.960938 14.640625 -0.984375 14.703125 -0.984375 C 14.742188 -0.984375 14.785156 -0.984375 14.828125 -0.984375 C 14.878906 -0.992188 14.914062 -1 14.9375 -1 C 15.070312 -1.007812 15.257812 -1.019531 15.5 -1.03125 C 15.75 -1.039062 16.015625 -1.0625 16.296875 -1.09375 C 16.578125 -1.125 16.863281 -1.171875 17.15625 -1.234375 C 17.445312 -1.296875 17.710938 -1.390625 17.953125 -1.515625 C 18.191406 -1.640625 18.382812 -1.800781 18.53125 -2 C 18.6875 -2.207031 18.765625 -2.457031 18.765625 -2.75 C 18.765625 -2.820312 18.753906 -2.90625 18.734375 -3 L 16.40625 -9.421875 C 16.394531 -9.453125 16.375 -9.507812 16.34375 -9.59375 C 16.3125 -9.675781 16.257812 -9.757812 16.1875 -9.84375 C 16.125 -9.9375 16.039062 -10.015625 15.9375 -10.078125 C 15.84375 -10.148438 15.722656 -10.1875 15.578125 -10.1875 L 9.15625 -10.1875 C 9.007812 -10.1875 8.878906 -10.148438 8.765625 -10.078125 C 8.660156 -10.015625 8.570312 -9.941406 8.5 -9.859375 C 8.425781 -9.773438 8.367188 -9.691406 8.328125 -9.609375 C 8.285156 -9.523438 8.265625 -9.476562 8.265625 -9.46875 C 7.890625 -8.351562 7.570312 -7.410156 7.3125 -6.640625 C 7.050781 -5.878906 6.832031 -5.25 6.65625 -4.75 C 6.488281 -4.25 6.359375 -3.863281 6.265625 -3.59375 C 6.171875 -3.320312 6.101562 -3.125 6.0625 -3 C 6.019531 -2.875 5.992188 -2.796875 5.984375 -2.765625 C 5.984375 -2.734375 5.984375 -2.71875 5.984375 -2.71875 C 5.984375 -2.6875 5.988281 -2.648438 6 -2.609375 C 6.007812 -2.566406 6.019531 -2.523438 6.03125 -2.484375 C 6.125 -2.191406 6.296875 -1.945312 6.546875 -1.75 C 6.804688 -1.550781 7.101562 -1.394531 7.4375 -1.28125 C 7.769531 -1.175781 8.109375 -1.097656 8.453125 -1.046875 C 8.804688 -1.003906 9.117188 -0.984375 9.390625 -0.984375 L 9.859375 -0.984375 C 9.921875 -0.984375 9.957031 -0.960938 9.96875 -0.921875 C 9.988281 -0.890625 10 -0.863281 10 -0.84375 L 10 -0.140625 C 10 -0.117188 9.988281 -0.0859375 9.96875 -0.046875 C 9.957031 -0.015625 9.921875 0 9.859375 0 L 0.234375 0 C 0.140625 0 0.09375 -0.046875 0.09375 -0.140625 Z M 9.40625 -12.75 C 9.382812 -12.695312 9.367188 -12.640625 9.359375 -12.578125 C 9.347656 -12.515625 9.34375 -12.457031 9.34375 -12.40625 C 9.34375 -12.332031 9.359375 -12.273438 9.390625 -12.234375 C 9.429688 -12.191406 9.503906 -12.171875 9.609375 -12.171875 L 14.9375 -12.171875 C 15.070312 -12.171875 15.160156 -12.195312 15.203125 -12.25 C 15.242188 -12.300781 15.265625 -12.363281 15.265625 -12.4375 C 15.265625 -12.5 15.257812 -12.550781 15.25 -12.59375 C 15.238281 -12.644531 15.21875 -12.695312 15.1875 -12.75 L 12.828125 -19.25 C 12.765625 -19.414062 12.675781 -19.535156 12.5625 -19.609375 C 12.445312 -19.691406 12.335938 -19.734375 12.234375 -19.734375 C 12.140625 -19.734375 12.035156 -19.6875 11.921875 -19.59375 C 11.804688 -19.507812 11.71875 -19.390625 11.65625 -19.234375 Z M 9.40625 -12.75 "/></g></g></g><g fill="#000000" fill-opacity="1"><g transform="translate(166.799535, 332.157602)"><g><path d="M 12.671875 -8.796875 C 12.671875 -8.859375 12.648438 -8.914062 12.609375 -8.96875 L 5.34375 -20.609375 C 5.132812 -20.921875 4.914062 -21.238281 4.6875 -21.5625 C 4.457031 -21.894531 4.203125 -22.207031 3.921875 -22.5 C 3.640625 -22.789062 3.335938 -23.046875 3.015625 -23.265625 C 2.691406 -23.484375 2.335938 -23.640625 1.953125 -23.734375 C 1.898438 -23.742188 1.804688 -23.765625 1.671875 -23.796875 C 1.546875 -23.828125 1.410156 -23.851562 1.265625 -23.875 C 1.117188 -23.894531 0.976562 -23.914062 0.84375 -23.9375 C 0.71875 -23.96875 0.625 -23.988281 0.5625 -24 C 0.445312 -24.007812 0.335938 -24.082031 0.234375 -24.21875 C 0.128906 -24.351562 0.078125 -24.476562 0.078125 -24.59375 C 0.078125 -24.613281 0.078125 -24.648438 0.078125 -24.703125 C 0.0859375 -24.765625 0.0976562 -24.820312 0.109375 -24.875 C 0.128906 -24.9375 0.15625 -24.988281 0.1875 -25.03125 C 0.226562 -25.070312 0.28125 -25.09375 0.34375 -25.09375 L 12.421875 -25.09375 C 12.546875 -25.09375 12.625 -25.03125 12.65625 -24.90625 C 12.695312 -24.789062 12.71875 -24.6875 12.71875 -24.59375 C 12.71875 -24.46875 12.707031 -24.335938 12.6875 -24.203125 C 12.675781 -24.078125 12.609375 -24.015625 12.484375 -24.015625 C 12.171875 -23.992188 11.867188 -23.96875 11.578125 -23.9375 C 11.296875 -23.914062 11.050781 -23.859375 10.84375 -23.765625 C 10.644531 -23.679688 10.484375 -23.550781 10.359375 -23.375 C 10.242188 -23.195312 10.1875 -22.945312 10.1875 -22.625 C 10.1875 -22.34375 10.257812 -22.085938 10.40625 -21.859375 L 15.828125 -13.140625 C 15.960938 -12.941406 16.050781 -12.816406 16.09375 -12.765625 C 16.132812 -12.722656 16.203125 -12.703125 16.296875 -12.703125 C 16.378906 -12.703125 16.453125 -12.75 16.515625 -12.84375 C 16.585938 -12.9375 16.671875 -13.0625 16.765625 -13.21875 L 21.046875 -20.5 C 21.210938 -20.769531 21.378906 -21.070312 21.546875 -21.40625 C 21.722656 -21.738281 21.8125 -22.078125 21.8125 -22.421875 C 21.8125 -22.753906 21.765625 -23.015625 21.671875 -23.203125 C 21.585938 -23.398438 21.457031 -23.550781 21.28125 -23.65625 C 21.101562 -23.769531 20.882812 -23.847656 20.625 -23.890625 C 20.375 -23.941406 20.082031 -23.984375 19.75 -24.015625 C 19.613281 -24.023438 19.535156 -24.09375 19.515625 -24.21875 C 19.492188 -24.351562 19.484375 -24.476562 19.484375 -24.59375 C 19.484375 -24.675781 19.5 -24.78125 19.53125 -24.90625 C 19.5625 -25.03125 19.644531 -25.09375 19.78125 -25.09375 L 28.734375 -25.09375 C 28.828125 -25.09375 28.890625 -25.019531 28.921875 -24.875 C 28.960938 -24.738281 28.984375 -24.644531 28.984375 -24.59375 C 28.984375 -24.46875 28.941406 -24.363281 28.859375 -24.28125 C 28.785156 -24.195312 28.691406 -24.128906 28.578125 -24.078125 C 28.460938 -24.023438 28.34375 -23.984375 28.21875 -23.953125 C 28.101562 -23.921875 27.988281 -23.894531 27.875 -23.875 C 27.28125 -23.75 26.765625 -23.535156 26.328125 -23.234375 C 25.898438 -22.929688 25.476562 -22.550781 25.0625 -22.09375 C 25.007812 -22.039062 24.925781 -21.945312 24.8125 -21.8125 C 24.695312 -21.675781 24.632812 -21.597656 24.625 -21.578125 L 17.734375 -9.75 L 17.734375 -3.46875 C 17.734375 -2.757812 17.914062 -2.207031 18.28125 -1.8125 C 18.65625 -1.425781 19.3125 -1.179688 20.25 -1.078125 C 20.375 -1.066406 20.535156 -1.0625 20.734375 -1.0625 C 20.941406 -1.0625 21.117188 -1.0625 21.265625 -1.0625 C 21.316406 -1.0625 21.351562 -1.039062 21.375 -1 C 21.394531 -0.96875 21.40625 -0.941406 21.40625 -0.921875 L 21.40625 -0.140625 C 21.40625 -0.117188 21.394531 -0.0859375 21.375 -0.046875 C 21.351562 -0.015625 21.316406 0 21.265625 0 L 9.140625 0 C 9.085938 0 9.050781 -0.015625 9.03125 -0.046875 C 9.007812 -0.0859375 9 -0.117188 9 -0.140625 L 9 -0.921875 C 9 -0.941406 9.007812 -0.96875 9.03125 -1 C 9.050781 -1.039062 9.085938 -1.0625 9.140625 -1.0625 C 9.273438 -1.0625 9.445312 -1.0625 9.65625 -1.0625 C 9.863281 -1.0625 10.03125 -1.066406 10.15625 -1.078125 C 11.09375 -1.179688 11.742188 -1.425781 12.109375 -1.8125 C 12.484375 -2.207031 12.671875 -2.757812 12.671875 -3.46875 Z M 12.671875 -8.796875 "/></g></g></g><g fill="#000000" fill-opacity="1"><g transform="translate(199.548391, 332.157602)"><g><path d="M 0.09375 -0.84375 C 0.09375 -0.9375 0.140625 -0.984375 0.234375 -0.984375 C 0.453125 -0.992188 0.710938 -1.023438 1.015625 -1.078125 C 1.328125 -1.128906 1.640625 -1.238281 1.953125 -1.40625 C 2.265625 -1.582031 2.566406 -1.835938 2.859375 -2.171875 C 3.160156 -2.515625 3.410156 -2.984375 3.609375 -3.578125 L 10.765625 -24.328125 C 10.765625 -24.304688 10.765625 -24.304688 10.765625 -24.328125 C 10.773438 -24.359375 10.78125 -24.382812 10.78125 -24.40625 C 10.78125 -24.488281 10.75 -24.59375 10.6875 -24.71875 C 10.625 -24.84375 10.59375 -24.9375 10.59375 -25 C 10.59375 -25.0625 10.613281 -25.09375 10.65625 -25.09375 L 15.8125 -25.09375 C 15.84375 -25.070312 15.878906 -25.054688 15.921875 -25.046875 C 15.960938 -25.035156 15.992188 -25 16.015625 -24.9375 L 23.53125 -3.828125 C 23.65625 -3.492188 23.769531 -3.207031 23.875 -2.96875 C 23.976562 -2.726562 24.101562 -2.515625 24.25 -2.328125 C 24.40625 -2.148438 24.59375 -1.988281 24.8125 -1.84375 C 25.039062 -1.695312 25.332031 -1.546875 25.6875 -1.390625 C 25.851562 -1.304688 26.078125 -1.21875 26.359375 -1.125 C 26.648438 -1.03125 26.925781 -0.984375 27.1875 -0.984375 C 27.25 -0.984375 27.285156 -0.960938 27.296875 -0.921875 C 27.316406 -0.890625 27.328125 -0.851562 27.328125 -0.8125 L 27.328125 -0.140625 C 27.328125 -0.117188 27.316406 -0.0859375 27.296875 -0.046875 C 27.285156 -0.015625 27.25 0 27.1875 0 L 14.703125 0 C 14.640625 0 14.597656 -0.015625 14.578125 -0.046875 C 14.554688 -0.0859375 14.546875 -0.117188 14.546875 -0.140625 L 14.546875 -0.84375 C 14.546875 -0.863281 14.554688 -0.890625 14.578125 -0.921875 C 14.597656 -0.960938 14.640625 -0.984375 14.703125 -0.984375 C 14.742188 -0.984375 14.785156 -0.984375 14.828125 -0.984375 C 14.878906 -0.992188 14.914062 -1 14.9375 -1 C 15.070312 -1.007812 15.257812 -1.019531 15.5 -1.03125 C 15.75 -1.039062 16.015625 -1.0625 16.296875 -1.09375 C 16.578125 -1.125 16.863281 -1.171875 17.15625 -1.234375 C 17.445312 -1.296875 17.710938 -1.390625 17.953125 -1.515625 C 18.191406 -1.640625 18.382812 -1.800781 18.53125 -2 C 18.6875 -2.207031 18.765625 -2.457031 18.765625 -2.75 C 18.765625 -2.820312 18.753906 -2.90625 18.734375 -3 L 16.40625 -9.421875 C 16.394531 -9.453125 16.375 -9.507812 16.34375 -9.59375 C 16.3125 -9.675781 16.257812 -9.757812 16.1875 -9.84375 C 16.125 -9.9375 16.039062 -10.015625 15.9375 -10.078125 C 15.84375 -10.148438 15.722656 -10.1875 15.578125 -10.1875 L 9.15625 -10.1875 C 9.007812 -10.1875 8.878906 -10.148438 8.765625 -10.078125 C 8.660156 -10.015625 8.570312 -9.941406 8.5 -9.859375 C 8.425781 -9.773438 8.367188 -9.691406 8.328125 -9.609375 C 8.285156 -9.523438 8.265625 -9.476562 8.265625 -9.46875 C 7.890625 -8.351562 7.570312 -7.410156 7.3125 -6.640625 C 7.050781 -5.878906 6.832031 -5.25 6.65625 -4.75 C 6.488281 -4.25 6.359375 -3.863281 6.265625 -3.59375 C 6.171875 -3.320312 6.101562 -3.125 6.0625 -3 C 6.019531 -2.875 5.992188 -2.796875 5.984375 -2.765625 C 5.984375 -2.734375 5.984375 -2.71875 5.984375 -2.71875 C 5.984375 -2.6875 5.988281 -2.648438 6 -2.609375 C 6.007812 -2.566406 6.019531 -2.523438 6.03125 -2.484375 C 6.125 -2.191406 6.296875 -1.945312 6.546875 -1.75 C 6.804688 -1.550781 7.101562 -1.394531 7.4375 -1.28125 C 7.769531 -1.175781 8.109375 -1.097656 8.453125 -1.046875 C 8.804688 -1.003906 9.117188 -0.984375 9.390625 -0.984375 L 9.859375 -0.984375 C 9.921875 -0.984375 9.957031 -0.960938 9.96875 -0.921875 C 9.988281 -0.890625 10 -0.863281 10 -0.84375 L 10 -0.140625 C 10 -0.117188 9.988281 -0.0859375 9.96875 -0.046875 C 9.957031 -0.015625 9.921875 0 9.859375 0 L 0.234375 0 C 0.140625 0 0.09375 -0.046875 0.09375 -0.140625 Z M 9.40625 -12.75 C 9.382812 -12.695312 9.367188 -12.640625 9.359375 -12.578125 C 9.347656 -12.515625 9.34375 -12.457031 9.34375 -12.40625 C 9.34375 -12.332031 9.359375 -12.273438 9.390625 -12.234375 C 9.429688 -12.191406 9.503906 -12.171875 9.609375 -12.171875 L 14.9375 -12.171875 C 15.070312 -12.171875 15.160156 -12.195312 15.203125 -12.25 C 15.242188 -12.300781 15.265625 -12.363281 15.265625 -12.4375 C 15.265625 -12.5 15.257812 -12.550781 15.25 -12.59375 C 15.238281 -12.644531 15.21875 -12.695312 15.1875 -12.75 L 12.828125 -19.25 C 12.765625 -19.414062 12.675781 -19.535156 12.5625 -19.609375 C 12.445312 -19.691406 12.335938 -19.734375 12.234375 -19.734375 C 12.140625 -19.734375 12.035156 -19.6875 11.921875 -19.59375 C 11.804688 -19.507812 11.71875 -19.390625 11.65625 -19.234375 Z M 9.40625 -12.75 "/></g></g></g><g fill="#000000" fill-opacity="1"><g transform="translate(230.642778, 332.157602)"><g><path d="M 4.375 -21.96875 C 4.375 -22.425781 4.289062 -22.789062 4.125 -23.0625 C 3.96875 -23.34375 3.738281 -23.5625 3.4375 -23.71875 C 3.144531 -23.875 2.785156 -23.976562 2.359375 -24.03125 C 1.929688 -24.082031 1.453125 -24.109375 0.921875 -24.109375 C 0.828125 -24.109375 0.78125 -24.15625 0.78125 -24.25 L 0.78125 -24.9375 C 0.78125 -25.039062 0.828125 -25.09375 0.921875 -25.09375 L 12.1875 -25.09375 C 12.25 -25.09375 12.285156 -25.070312 12.296875 -25.03125 C 12.316406 -25 12.328125 -24.96875 12.328125 -24.9375 L 12.328125 -24.25 C 12.328125 -24.226562 12.316406 -24.195312 12.296875 -24.15625 C 12.285156 -24.125 12.25 -24.109375 12.1875 -24.109375 C 11.820312 -24.109375 11.472656 -24.082031 11.140625 -24.03125 C 10.804688 -23.976562 10.515625 -23.859375 10.265625 -23.671875 C 10.015625 -23.492188 9.816406 -23.238281 9.671875 -22.90625 C 9.523438 -22.582031 9.453125 -22.132812 9.453125 -21.5625 L 9.453125 0.171875 C 9.453125 1.054688 9.363281 1.945312 9.1875 2.84375 C 9.019531 3.738281 8.757812 4.597656 8.40625 5.421875 C 8.050781 6.253906 7.609375 7.03125 7.078125 7.75 C 6.546875 8.476562 5.921875 9.113281 5.203125 9.65625 C 4.492188 10.195312 3.691406 10.617188 2.796875 10.921875 C 1.898438 11.234375 0.910156 11.390625 -0.171875 11.390625 C -1.660156 11.390625 -2.742188 11.210938 -3.421875 10.859375 C -4.097656 10.515625 -4.441406 10.066406 -4.453125 9.515625 C -4.453125 9.265625 -4.394531 9.03125 -4.28125 8.8125 C -4.164062 8.59375 -4.019531 8.398438 -3.84375 8.234375 C -3.675781 8.066406 -3.484375 7.9375 -3.265625 7.84375 C -3.054688 7.75 -2.847656 7.703125 -2.640625 7.703125 C -2.273438 7.703125 -1.960938 7.742188 -1.703125 7.828125 C -1.441406 7.910156 -1.210938 8.015625 -1.015625 8.140625 C -0.828125 8.265625 -0.65625 8.398438 -0.5 8.546875 C -0.351562 8.691406 -0.195312 8.828125 -0.03125 8.953125 C 0.125 9.078125 0.285156 9.179688 0.453125 9.265625 C 0.628906 9.347656 0.835938 9.390625 1.078125 9.390625 C 1.617188 9.390625 2.070312 9.28125 2.4375 9.0625 C 2.8125 8.851562 3.117188 8.5625 3.359375 8.1875 C 3.609375 7.8125 3.800781 7.375 3.9375 6.875 C 4.070312 6.382812 4.171875 5.859375 4.234375 5.296875 C 4.304688 4.734375 4.347656 4.148438 4.359375 3.546875 C 4.367188 2.953125 4.375 2.363281 4.375 1.78125 Z M 4.375 -21.96875 "/></g></g></g><g fill="#000000" fill-opacity="1"><g transform="translate(248.252273, 332.157602)"><g><path d="M 9.546875 -3.375 C 9.546875 -2.976562 9.609375 -2.640625 9.734375 -2.359375 C 9.859375 -2.085938 10.035156 -1.867188 10.265625 -1.703125 C 10.503906 -1.535156 10.789062 -1.414062 11.125 -1.34375 C 11.46875 -1.28125 11.847656 -1.25 12.265625 -1.25 C 12.359375 -1.25 12.40625 -1.203125 12.40625 -1.109375 L 12.40625 -0.140625 C 12.40625 -0.109375 12.394531 -0.078125 12.375 -0.046875 C 12.363281 -0.015625 12.328125 0 12.265625 0 L 1.75 0 C 1.6875 0 1.644531 -0.015625 1.625 -0.046875 C 1.601562 -0.0859375 1.59375 -0.117188 1.59375 -0.140625 L 1.59375 -1.109375 C 1.59375 -1.128906 1.601562 -1.15625 1.625 -1.1875 C 1.644531 -1.226562 1.6875 -1.25 1.75 -1.25 C 2.15625 -1.25 2.523438 -1.273438 2.859375 -1.328125 C 3.203125 -1.378906 3.492188 -1.492188 3.734375 -1.671875 C 3.972656 -1.847656 4.15625 -2.101562 4.28125 -2.4375 C 4.414062 -2.769531 4.484375 -3.222656 4.484375 -3.796875 L 4.484375 -21.703125 C 4.484375 -22.109375 4.421875 -22.445312 4.296875 -22.71875 C 4.171875 -22.988281 3.992188 -23.207031 3.765625 -23.375 C 3.535156 -23.539062 3.25 -23.660156 2.90625 -23.734375 C 2.570312 -23.804688 2.195312 -23.84375 1.78125 -23.84375 C 1.6875 -23.84375 1.640625 -23.890625 1.640625 -23.984375 L 1.640625 -24.9375 C 1.640625 -25.039062 1.6875 -25.09375 1.78125 -25.09375 L 12.296875 -25.09375 C 12.359375 -25.09375 12.394531 -25.070312 12.40625 -25.03125 C 12.425781 -25 12.4375 -24.96875 12.4375 -24.9375 L 12.4375 -23.984375 C 12.4375 -23.960938 12.425781 -23.929688 12.40625 -23.890625 C 12.394531 -23.859375 12.359375 -23.84375 12.296875 -23.84375 C 11.878906 -23.84375 11.5 -23.816406 11.15625 -23.765625 C 10.820312 -23.710938 10.535156 -23.59375 10.296875 -23.40625 C 10.066406 -23.226562 9.882812 -22.972656 9.75 -22.640625 C 9.613281 -22.316406 9.546875 -21.867188 9.546875 -21.296875 Z M 9.546875 -3.375 "/></g></g></g></svg>